<?xml version="1.0" standalone="no"?>
<!DOCTYPE svg PUBLIC "-//W3C//DTD SVG 20010904//EN"
 "http://www.w3.org/TR/2001/REC-SVG-20010904/DTD/svg10.dtd">
<svg version="1.0" xmlns="http://www.w3.org/2000/svg"
 width="75.000000pt" height="75.000000pt" viewBox="0 0 75.000000 75.000000"
 preserveAspectRatio="xMidYMid meet">
<metadata>
Created by potrace 1.14, written by Peter Selinger 2001-2017
</metadata>
<g transform="translate(0.000000,75.000000) scale(0.100000,-0.100000)"
fill="#000000" stroke="none">
<path d="M243 718 c-33 -9 -143 -107 -143 -128 0 -6 -9 -23 -19 -38 -28 -38
-36 -107 -17 -137 9 -13 13 -31 10 -39 -7 -19 23 -113 40 -123 6 -5 19 -20 29
-35 29 -46 70 -78 117 -92 70 -21 133 -4 192 52 27 25 51 25 30 0 -8 -11 -10
-72 -2 -88 4 -7 7 -22 9 -37 2 -19 68 -35 118 -29 59 7 91 29 110 74 15 36 15
39 -17 99 -29 57 -31 65 -20 99 10 30 10 38 -1 45 -35 22 -69 -10 -72 -67 l-2
-39 -44 2 c-24 1 -45 4 -47 6 -9 8 19 67 31 67 29 0 47 117 21 139 -7 6 -11
21 -9 34 7 36 -22 90 -84 153 -72 75 -153 103 -230 82z"/>
</g>
</svg>
