<?xml version="1.0" standalone="no"?>
<!DOCTYPE svg PUBLIC "-//W3C//DTD SVG 20010904//EN"
 "http://www.w3.org/TR/2001/REC-SVG-20010904/DTD/svg10.dtd">
<svg version="1.0" xmlns="http://www.w3.org/2000/svg"
 width="400.000000pt" height="400.000000pt" viewBox="0 0 400.000000 400.000000"
 preserveAspectRatio="xMidYMid meet">
<metadata>
Created by potrace 1.11, written by Peter Selinger 2001-2013
</metadata>
<g transform="translate(0.000000,400.000000) scale(0.100000,-0.100000)"
fill="#000000" stroke="none">
<path d="M1875 3994 c-276 -22 -530 -91 -768 -210 -134 -68 -147 -76 -147 -92
0 -8 -6 -12 -14 -9 -20 8 -86 -40 -86 -63 0 -11 -4 -20 -10 -20 -6 0 -10 -27
-10 -60 0 -33 -4 -60 -10 -60 -5 0 -10 -9 -10 -20 0 -11 -4 -20 -10 -20 -5 0
-10 -13 -10 -30 0 -23 4 -30 20 -30 11 0 20 -4 20 -10 0 -5 -4 -10 -10 -10 -5
0 -10 -9 -10 -19 0 -11 -6 -22 -12 -25 -10 -5 -10 -7 0 -12 14 -7 17 -64 2
-64 -5 0 -10 14 -10 30 0 17 -4 30 -10 30 -15 0 -13 157 3 164 9 5 9 7 0 12
-7 3 -13 23 -13 45 0 21 -4 39 -10 39 -5 0 -10 -4 -10 -10 0 -5 -6 -10 -13
-10 -8 0 -35 -16 -60 -36 -43 -34 -47 -40 -47 -80 0 -24 -4 -44 -10 -44 -6 0
-10 -33 -10 -80 0 -47 -4 -80 -10 -80 -6 0 -10 -53 -10 -140 0 -87 -4 -140
-10 -140 -5 0 -10 -18 -10 -40 0 -22 -4 -40 -10 -40 -5 0 -10 -13 -10 -30 0
-16 -4 -30 -10 -30 -5 0 -10 -9 -10 -20 0 -11 5 -20 10 -20 6 0 10 -9 10 -20
0 -11 5 -20 10 -20 6 0 10 -9 10 -20 0 -11 5 -20 10 -20 6 0 10 -9 10 -20 0
-11 5 -20 10 -20 6 0 10 -13 10 -30 0 -28 -2 -30 -40 -30 -22 0 -40 -4 -40
-10 0 -5 -11 -10 -25 -10 -29 0 -75 -40 -75 -65 0 -8 -4 -15 -10 -15 -5 0 -10
-13 -10 -30 0 -16 -4 -30 -10 -30 -6 0 -10 -53 -10 -140 0 -87 4 -140 10 -140
6 0 10 -22 10 -50 0 -27 5 -50 10 -50 6 0 10 -13 10 -30 0 -16 5 -30 10 -30 6
0 10 -9 10 -20 0 -11 5 -20 10 -20 6 0 10 -7 10 -16 0 -9 13 -29 30 -44 16
-15 30 -33 30 -39 0 -17 147 -161 165 -161 8 0 15 -4 15 -10 0 -5 9 -10 20
-10 11 0 20 -4 20 -10 0 -15 137 -13 142 2 7 21 38 -17 38 -46 0 -14 5 -26 10
-26 6 0 10 -13 10 -30 0 -16 5 -30 10 -30 6 0 10 -9 10 -20 0 -11 5 -20 10
-20 6 0 10 -9 10 -20 0 -11 5 -20 10 -20 6 0 10 -13 10 -30 0 -20 -5 -30 -15
-30 -26 0 -85 -66 -85 -95 0 -14 -4 -25 -10 -25 -6 0 -10 -53 -10 -140 0 -133
-1 -140 -20 -140 -11 0 -20 -4 -20 -10 0 -5 -13 -10 -30 -10 -16 0 -30 -4 -30
-10 0 -5 -8 -10 -18 -10 -10 0 -24 -9 -32 -20 -8 -11 -20 -20 -27 -20 -19 0
-123 -106 -123 -125 0 -8 -4 -15 -10 -15 -5 0 -10 -13 -10 -30 0 -16 -4 -30
-9 -30 -19 0 -18 -72 2 -96 16 -21 20 -22 33 -10 8 8 14 26 14 40 0 14 5 26
10 26 6 0 10 14 10 30 0 17 5 30 10 30 6 0 10 7 10 15 0 26 107 125 135 125
14 0 25 5 25 10 0 6 9 10 20 10 11 0 20 5 20 10 0 6 14 10 30 10 17 0 30 5 30
10 0 6 27 10 60 10 33 0 60 -4 60 -10 0 -5 18 -10 40 -10 22 0 40 -4 40 -10 0
-5 12 -10 26 -10 29 0 54 -21 54 -44 0 -9 5 -16 10 -16 6 0 10 -8 10 -18 0
-10 9 -24 20 -32 11 -8 20 -20 20 -28 0 -7 27 -40 60 -72 69 -67 74 -89 30
-130 -16 -15 -30 -33 -30 -40 0 -6 -18 -29 -40 -50 -22 -21 -40 -44 -40 -50 0
-7 -13 -25 -30 -40 -16 -15 -30 -33 -30 -40 0 -7 -13 -25 -30 -40 -16 -15 -30
-35 -30 -44 0 -9 -6 -16 -12 -16 -7 0 -5 -5 4 -11 14 -8 23 -4 43 15 14 14 25
30 25 37 0 6 14 24 30 39 17 15 30 34 30 42 0 7 9 20 20 28 11 8 20 21 20 28
0 7 18 31 40 52 22 21 40 46 40 54 0 9 5 16 10 16 6 0 10 -56 10 -148 0 -136
2 -149 20 -162 11 -8 20 -20 20 -28 0 -18 25 -42 44 -42 9 0 16 -4 16 -10 0
-5 9 -10 20 -10 11 0 20 -4 20 -10 0 -5 14 -10 30 -10 17 0 30 -4 30 -10 0 -5
9 -10 20 -10 11 0 20 -4 20 -10 0 -5 14 -10 30 -10 17 0 30 -4 30 -10 0 -5 14
-10 30 -10 17 0 30 -4 30 -9 0 -9 52 -16 213 -26 l87 -5 0 99 c0 70 4 101 13
105 10 5 10 7 0 12 -15 7 -17 44 -3 44 6 0 10 40 10 100 l0 100 80 0 c47 0 80
4 80 10 0 6 18 10 40 10 22 0 40 5 40 10 0 6 9 10 20 10 11 0 20 5 20 10 0 6
9 10 20 10 11 0 20 5 20 10 0 6 8 10 18 10 10 0 24 9 32 20 8 11 22 20 31 20
10 0 19 5 21 12 6 16 58 -35 58 -57 0 -8 5 -15 10 -15 6 0 10 -9 10 -20 0 -11
5 -20 10 -20 6 0 10 -8 10 -18 0 -10 9 -24 20 -32 11 -8 20 -22 20 -32 0 -10
5 -18 10 -18 6 0 10 -9 10 -20 0 -11 5 -20 10 -20 6 0 10 -8 10 -18 0 -10 9
-24 20 -32 11 -8 20 -22 20 -32 0 -10 5 -18 10 -18 6 0 10 -9 10 -20 0 -11 5
-20 10 -20 6 0 10 -9 10 -19 0 -19 23 -35 34 -24 10 10 7 43 -4 43 -5 0 -10 9
-10 20 0 11 -4 20 -10 20 -5 0 -10 8 -10 18 0 10 -9 24 -20 32 -11 8 -20 22
-20 32 0 10 -4 18 -10 18 -5 0 -10 8 -10 18 0 10 -9 24 -20 32 -11 8 -20 26
-20 40 0 14 -9 32 -20 40 -11 8 -20 22 -20 32 0 10 -4 18 -10 18 -5 0 -10 9
-10 20 0 11 -4 20 -10 20 -5 0 -10 9 -10 20 0 11 -4 20 -10 20 -28 0 -1 39 80
120 50 49 90 95 90 102 0 8 9 20 20 28 11 8 20 22 20 32 0 14 8 18 40 18 l40
0 0 -60 c0 -33 4 -60 10 -60 6 0 10 -18 10 -40 0 -22 5 -40 10 -40 6 0 10 -13
10 -30 0 -16 5 -30 10 -30 6 0 10 -9 10 -20 0 -11 5 -20 10 -20 6 0 10 -8 10
-18 0 -10 9 -24 20 -32 21 -15 28 -50 10 -50 -16 0 -13 -237 3 -243 17 -6 47
11 47 28 0 7 6 16 13 19 10 5 10 7 0 12 -7 3 -13 14 -13 25 0 10 -4 19 -10 19
-5 0 -10 14 -10 30 0 17 5 30 10 30 6 0 10 11 10 25 0 14 11 37 25 50 23 24
28 25 173 25 l148 0 39 40 39 40 -162 0 c-101 0 -162 -4 -162 -10 0 -5 -13
-10 -30 -10 -16 0 -30 5 -30 10 0 6 -11 10 -25 10 -33 0 -75 42 -75 75 0 14
-4 25 -10 25 -5 0 -10 18 -10 40 0 22 -4 40 -10 40 -6 0 -10 32 -10 75 0 67 3
79 25 100 13 14 31 25 40 25 8 0 15 5 15 10 0 6 23 10 50 10 28 0 50 5 50 10
0 6 23 10 50 10 28 0 50 5 50 10 0 6 63 10 170 10 107 0 170 -4 170 -10 0 -5
13 -10 28 -10 16 0 34 -8 42 -20 8 -11 22 -20 32 -20 10 0 18 -4 18 -10 0 -5
9 -10 19 -10 11 0 21 -8 23 -17 3 -14 8 -11 21 14 21 40 21 43 -1 43 -10 0
-24 9 -32 20 -8 11 -22 20 -32 20 -10 0 -18 5 -18 10 0 6 -9 10 -20 10 -11 0
-20 5 -20 10 0 6 -13 10 -30 10 -16 0 -30 5 -30 10 0 6 -7 10 -16 10 -20 0
-44 24 -44 44 0 9 -4 16 -10 16 -5 0 -10 14 -10 30 0 17 -4 30 -10 30 -5 0
-10 14 -10 30 0 17 -4 30 -10 30 -6 0 -10 36 -10 89 0 62 -4 91 -12 94 -10 4
-9 8 2 17 11 9 12 13 3 17 -9 3 -13 26 -13 64 0 33 -4 59 -10 59 -5 0 -10 9
-10 20 0 16 -7 20 -36 20 -19 0 -42 7 -50 15 -14 13 -7 23 55 84 39 39 71 75
71 82 0 6 14 24 30 39 18 17 30 38 30 54 0 14 5 26 10 26 6 0 10 9 10 20 0 11
5 20 10 20 6 0 10 9 10 20 0 11 5 20 10 20 6 0 10 18 10 40 0 22 5 40 10 40 6
0 10 60 10 160 0 100 -4 160 -10 160 -5 0 -10 11 -10 25 0 34 -61 95 -95 95
-14 0 -25 5 -25 10 0 6 -9 10 -20 10 -17 0 -20 7 -20 48 0 36 5 51 20 62 11 8
20 21 20 30 0 9 9 22 20 30 12 8 20 26 20 42 0 21 -5 28 -20 28 -11 0 -20 5
-20 10 0 6 -9 10 -20 10 -11 0 -20 5 -20 10 0 6 5 10 10 10 6 0 10 8 10 18 0
10 9 24 20 32 11 8 20 25 20 38 0 26 -41 72 -65 72 -12 0 -15 15 -15 90 0 53
-4 90 -10 90 -6 0 -10 43 -10 110 0 67 -4 110 -10 110 -5 0 -10 22 -10 49 0
46 -3 52 -41 82 -29 23 -51 32 -70 31 -21 -2 -29 2 -29 13 0 9 -9 25 -20 37
l-20 22 0 -37 c0 -20 5 -37 10 -37 6 0 10 -9 10 -20 0 -24 -6 -25 -26 -6 -8 8
-14 33 -14 56 0 49 -21 73 -106 121 -231 130 -457 207 -704 243 -111 16 -331
26 -415 20z m1331 -468 c19 -20 18 -26 -6 -26 -11 0 -20 -4 -20 -10 0 -5 5
-10 10 -10 6 0 10 -9 10 -20 0 -11 -4 -20 -10 -20 -5 0 -10 -22 -10 -50 0 -43
-3 -50 -20 -50 -11 0 -20 5 -20 10 0 6 5 10 10 10 6 0 10 32 10 75 0 47 5 81
13 90 15 18 16 18 33 1z m-2446 -86 c0 -47 -4 -80 -10 -80 -5 0 -10 -13 -10
-30 0 -16 5 -30 10 -30 6 0 10 -9 10 -20 0 -11 5 -20 10 -20 6 0 10 -13 10
-30 0 -16 5 -30 10 -30 6 0 10 -9 10 -20 0 -11 5 -20 10 -20 6 0 10 -13 10
-30 0 -28 -2 -30 -40 -30 -33 0 -40 3 -40 20 0 13 7 20 20 20 13 0 20 7 20 20
0 11 -4 20 -10 20 -5 0 -10 9 -10 20 0 11 -4 20 -10 20 -5 0 -10 9 -10 20 0
11 -4 20 -10 20 -5 0 -10 -4 -10 -10 0 -5 -4 -10 -10 -10 -5 0 -10 9 -10 20 0
11 5 20 10 20 6 0 10 27 10 60 0 33 4 60 10 60 14 0 12 37 -2 44 -10 5 -10 7
0 12 6 3 12 19 12 35 0 16 5 29 10 29 6 0 10 -33 10 -80z m2300 30 c0 -5 -4
-10 -10 -10 -5 0 -10 5 -10 10 0 6 5 10 10 10 6 0 10 -4 10 -10z m80 -10 c0
-11 -4 -20 -10 -20 -5 0 -10 9 -10 20 0 11 5 20 10 20 6 0 10 -9 10 -20z
m-1220 -40 c0 -19 7 -20 90 -20 53 0 90 4 90 10 0 6 43 10 110 10 67 0 110 -4
110 -10 0 -5 -18 -10 -40 -10 -22 0 -40 -4 -40 -10 0 -5 9 -10 20 -10 11 0 20
-4 20 -10 0 -20 -72 -11 -93 13 -13 15 -21 18 -24 10 -3 -7 -17 -13 -33 -13
-16 0 -31 -6 -34 -12 -5 -10 -7 -10 -12 0 -7 15 -204 17 -204 2 0 -5 -18 -10
-40 -10 -22 0 -40 -4 -40 -10 0 -5 -9 -10 -20 -10 -11 0 -20 5 -20 10 0 6 -9
10 -20 10 -16 0 -20 -7 -20 -30 0 -16 -4 -30 -10 -30 -5 0 -10 14 -10 30 0 23
-4 30 -20 30 -11 0 -20 5 -20 10 0 6 23 10 50 10 28 0 50 5 50 10 0 6 -22 10
-50 10 -27 0 -50 5 -50 10 0 6 30 10 70 10 40 0 70 -4 70 -10 0 -5 18 -10 40
-10 33 0 40 3 40 20 0 13 7 20 20 20 13 0 20 -7 20 -20z m1140 -20 c0 -11 5
-20 10 -20 6 0 10 -18 10 -40 0 -22 -4 -40 -10 -40 -5 0 -10 18 -10 40 0 22
-4 40 -10 40 -5 0 -10 9 -10 20 0 11 5 20 10 20 6 0 10 -9 10 -20z m-1460 -20
c0 -13 7 -20 20 -20 17 0 20 -7 20 -40 0 -33 -3 -40 -20 -40 -13 0 -20 -7 -20
-20 0 -12 -7 -20 -16 -20 -18 0 -44 23 -44 40 0 17 26 40 44 40 9 0 16 8 16
20 0 13 -7 20 -20 20 -11 0 -20 5 -20 10 0 6 -9 10 -20 10 -11 0 -20 5 -20 10
0 6 18 10 40 10 33 0 40 -3 40 -20z m800 10 c0 -5 18 -10 40 -10 22 0 40 -3
40 -6 0 -14 -31 -34 -54 -34 -19 0 -26 -5 -26 -20 0 -13 7 -20 20 -20 11 0 20
5 20 10 0 6 37 10 90 10 53 0 90 -4 90 -10 0 -5 9 -10 20 -10 11 0 20 -4 20
-10 0 -5 9 -10 20 -10 11 0 20 -4 20 -10 0 -5 -4 -10 -10 -10 -5 0 -10 -9 -10
-20 0 -16 -7 -20 -30 -20 -23 0 -30 4 -30 20 0 11 5 20 10 20 6 0 10 5 10 10
0 6 -9 10 -20 10 -11 0 -20 5 -20 10 0 6 -9 10 -20 10 -11 0 -20 -4 -20 -10 0
-6 -27 -10 -60 -10 -33 0 -60 -4 -60 -10 0 -5 -9 -10 -20 -10 -13 0 -20 7 -20
20 0 12 -7 20 -16 20 -20 0 -44 24 -44 44 0 11 9 16 30 16 17 0 30 5 30 10 0
6 -13 10 -30 10 -16 0 -30 5 -30 10 0 6 14 10 30 10 17 0 30 -4 30 -10z
m-1500 -20 c0 -5 -4 -10 -10 -10 -5 0 -10 5 -10 10 0 6 5 10 10 10 6 0 10 -4
10 -10z m600 -16 c0 -14 -31 -34 -54 -34 -14 0 -26 -4 -26 -10 0 -5 -9 -10
-20 -10 -11 0 -20 -4 -20 -10 0 -5 14 -10 30 -10 23 0 30 -4 30 -20 0 -12 7
-20 16 -20 15 0 44 -23 44 -34 0 -3 -9 -6 -20 -6 -11 0 -20 -4 -20 -10 0 -5
-9 -10 -20 -10 -11 0 -20 -4 -20 -10 0 -5 9 -10 20 -10 13 0 20 -7 20 -20 0
-16 -7 -20 -36 -20 -25 0 -43 -7 -55 -22 -11 -11 -22 -18 -27 -13 -4 4 -1 10
6 12 21 8 14 43 -8 43 -13 0 -20 -7 -20 -18 0 -10 -9 -24 -20 -32 -11 -8 -20
-22 -20 -32 0 -11 -7 -18 -19 -18 -11 0 -22 -6 -25 -12 -5 -10 -7 -10 -12 0
-8 18 -44 15 -44 -4 0 -8 -6 -22 -14 -30 -17 -16 -46 -19 -46 -4 0 6 -9 10
-20 10 -11 0 -20 5 -20 10 0 6 -16 10 -36 10 -19 0 -42 6 -50 14 -16 17 -19
46 -4 46 6 0 10 7 10 15 0 42 88 86 104 53 5 -10 7 -10 12 0 3 6 14 12 25 12
10 0 19 5 19 10 0 6 14 10 30 10 17 0 30 5 30 10 0 6 9 10 19 10 11 0 22 6 25
13 5 10 7 10 12 0 3 -7 14 -13 25 -13 10 0 19 -4 19 -10 0 -5 14 -10 30 -10
17 0 30 5 30 10 0 6 -13 10 -30 10 -16 0 -30 5 -30 10 0 6 -9 10 -20 10 -13 0
-20 7 -20 20 0 13 -7 20 -20 20 -13 0 -20 -7 -20 -20 0 -16 -7 -20 -30 -20
-16 0 -30 -4 -30 -10 0 -5 -13 -10 -29 -10 -16 0 -31 -6 -34 -12 -2 -7 -8 -10
-12 -6 -10 9 19 38 39 38 9 0 16 5 16 10 0 6 9 10 20 10 11 0 20 5 20 10 0 6
9 10 20 10 11 0 20 5 20 10 0 6 22 10 48 10 36 0 51 5 62 20 8 11 22 20 32 20
10 0 18 5 18 10 0 6 9 10 20 10 11 0 20 5 20 10 0 6 14 10 30 10 17 0 30 -3
30 -6z m420 -4 c0 -5 -9 -10 -20 -10 -13 0 -20 -7 -20 -18 0 -10 9 -24 20 -32
11 -8 20 -22 20 -32 0 -11 -7 -18 -20 -18 -13 0 -20 7 -20 20 0 16 -7 20 -30
20 -21 0 -30 5 -30 16 0 20 24 44 44 44 9 0 16 5 16 10 0 6 9 10 20 10 11 0
20 -4 20 -10z m1300 -20 c0 -16 5 -30 10 -30 6 0 10 -4 10 -10 0 -5 -9 -10
-20 -10 -17 0 -20 7 -20 40 0 22 5 40 10 40 6 0 10 -13 10 -30z m-2320 -70 c0
-11 -4 -20 -10 -20 -5 0 -10 9 -10 20 0 11 5 20 10 20 6 0 10 -9 10 -20z m860
10 c0 -5 8 -10 18 -10 10 0 24 -9 32 -20 8 -11 22 -20 32 -20 10 0 18 -4 18
-10 0 -6 -27 -10 -60 -10 -33 0 -60 -4 -60 -10 0 -5 -9 -10 -20 -10 -11 0 -20
5 -20 10 0 6 5 10 10 10 6 0 10 18 10 40 0 33 3 40 20 40 11 0 20 -4 20 -10z
m840 -10 c0 -13 -7 -20 -20 -20 -11 0 -20 -4 -20 -10 0 -5 -13 -10 -30 -10
-23 0 -30 4 -30 20 0 16 7 20 30 20 17 0 30 5 30 10 0 6 9 10 20 10 13 0 20
-7 20 -20z m480 -10 c0 -16 -4 -30 -10 -30 -5 0 -10 14 -10 30 0 17 5 30 10
30 6 0 10 -13 10 -30z m100 0 c0 -23 -4 -30 -20 -30 -23 0 -27 23 -7 45 19 22
27 18 27 -15z m-1520 -26 c0 -48 -19 -64 -74 -64 -25 0 -46 -4 -46 -10 0 -5
-13 -10 -30 -10 -36 0 -37 4 -5 35 24 25 55 33 55 15 0 -5 9 -10 20 -10 11 0
20 5 20 10 0 6 9 10 20 10 16 0 20 7 20 30 0 17 5 30 10 30 6 0 10 -16 10 -36z
m626 22 c8 -8 14 -22 14 -30 0 -9 8 -16 20 -16 11 0 20 -4 20 -10 0 -18 35
-11 50 10 13 18 70 30 70 14 0 -14 -31 -34 -54 -34 -19 0 -26 -5 -26 -20 0
-29 -28 -25 -60 10 -17 18 -38 30 -54 30 -27 0 -36 -15 -13 -23 6 -2 9 -8 5
-12 -4 -4 -15 1 -25 11 -13 12 -14 19 -5 22 6 2 12 17 12 33 0 32 21 39 46 15z
m454 4 c0 -5 9 -10 20 -10 11 0 20 -4 20 -10 0 -5 14 -10 30 -10 17 0 30 -4
30 -10 0 -5 -4 -10 -10 -10 -5 0 -10 -9 -10 -20 0 -13 -7 -20 -20 -20 -12 0
-20 7 -20 16 0 8 -6 22 -14 30 -8 8 -22 14 -30 14 -9 0 -16 8 -16 20 0 11 5
20 10 20 6 0 10 -4 10 -10z m480 -10 c0 -11 -4 -20 -10 -20 -5 0 -10 9 -10 20
0 11 5 20 10 20 6 0 10 -9 10 -20z m-600 -30 c0 -5 14 -10 30 -10 17 0 30 -4
30 -10 0 -5 -4 -10 -10 -10 -6 0 -10 -30 -10 -70 0 -40 -4 -70 -10 -70 -5 0
-10 9 -10 20 0 11 -4 20 -10 20 -14 0 -12 38 2 42 9 3 8 9 -4 21 -27 27 -48
21 -48 -13 0 -16 5 -30 10 -30 6 0 10 -4 10 -10 0 -5 -9 -10 -20 -10 -13 0
-20 7 -20 20 0 16 -7 20 -30 20 -16 0 -30 -4 -30 -10 0 -5 -9 -10 -20 -10 -11
0 -20 5 -20 10 0 6 9 10 20 10 13 0 20 7 20 20 0 13 -7 20 -20 20 -11 0 -20 5
-20 10 0 6 14 10 30 10 17 0 30 5 30 10 0 6 9 10 20 10 11 0 20 5 20 10 0 6
14 10 30 10 17 0 30 -4 30 -10z m640 0 c0 -5 -4 -10 -10 -10 -5 0 -10 5 -10
10 0 6 5 10 10 10 6 0 10 -4 10 -10z m-1100 -20 c0 -5 -4 -10 -10 -10 -5 0
-10 5 -10 10 0 6 5 10 10 10 6 0 10 -4 10 -10z m560 0 c0 -5 -4 -10 -10 -10
-5 0 -10 5 -10 10 0 6 5 10 10 10 6 0 10 -4 10 -10z m360 -8 c0 -10 9 -24 20
-32 11 -8 20 -18 20 -22 0 -13 -31 -9 -46 6 -16 17 -19 66 -4 66 6 0 10 -8 10
-18z m140 -2 c0 -11 5 -20 10 -20 6 0 10 -9 10 -20 0 -13 -7 -20 -20 -20 -16
0 -20 -7 -20 -30 0 -16 -4 -30 -10 -30 -5 0 -10 -4 -10 -10 0 -5 9 -10 20 -10
13 0 20 7 20 20 0 11 5 20 10 20 14 0 12 -38 -2 -43 -9 -3 -6 -11 10 -24 28
-25 29 -53 2 -53 -16 0 -20 7 -20 30 0 26 -4 30 -26 30 -14 0 -32 7 -41 15
-14 14 -13 18 6 34 12 10 21 30 21 44 0 14 6 28 13 31 10 5 10 7 0 12 -21 10
-16 44 7 44 13 0 20 -7 20 -20z m-2320 -5 c0 -11 -51 -57 -57 -52 -3 3 6 17
18 31 23 24 39 32 39 21z m1066 -29 c19 -20 18 -26 -6 -26 -11 0 -20 -4 -20
-10 0 -5 -13 -10 -30 -10 -16 0 -30 5 -30 10 0 6 14 10 30 10 23 0 30 4 30 20
0 24 6 25 26 6z m760 0 c8 -8 14 -22 14 -30 0 -9 5 -16 10 -16 6 0 10 -13 10
-29 0 -16 6 -32 13 -35 10 -5 10 -7 0 -12 -23 -10 -13 -24 17 -24 23 0 30 4
30 20 0 11 5 20 10 20 6 0 10 14 10 30 0 17 5 30 10 30 6 0 10 7 10 16 0 18
23 44 40 44 20 0 60 -49 60 -75 0 -14 5 -25 10 -25 6 0 10 -4 10 -10 0 -5 -9
-10 -20 -10 -18 0 -20 -7 -20 -70 0 -57 -3 -70 -16 -70 -20 0 -44 24 -44 44 0
9 8 16 20 16 11 0 20 5 20 10 0 6 -9 10 -20 10 -16 0 -20 7 -20 30 0 17 5 30
10 30 6 0 10 -4 10 -10 0 -5 5 -10 10 -10 6 0 10 9 10 20 0 11 5 20 10 20 15
0 12 29 -4 46 -17 16 -46 19 -46 4 0 -5 5 -10 10 -10 18 0 11 -35 -10 -50 -22
-16 -27 -65 -7 -74 10 -5 10 -7 0 -12 -7 -3 -13 -14 -13 -25 0 -12 -7 -19 -20
-19 -13 0 -20 7 -20 20 0 11 5 20 10 20 6 0 10 5 10 10 0 6 -9 10 -20 10 -11
0 -20 -4 -20 -10 0 -5 -9 -10 -20 -10 -13 0 -20 7 -20 20 0 11 -4 20 -10 20
-5 0 -10 9 -10 20 0 13 -7 20 -20 20 -11 0 -20 -4 -20 -10 0 -5 -4 -10 -10
-10 -5 0 -10 9 -10 20 0 11 5 20 10 20 6 0 10 9 10 20 0 11 -4 20 -10 20 -14
0 -12 28 3 45 15 18 16 18 33 1z m434 -6 c0 -11 -4 -20 -10 -20 -5 0 -10 9
-10 20 0 11 5 20 10 20 6 0 10 -9 10 -20z m-1400 -10 c0 -5 14 -10 30 -10 17
0 30 5 30 10 0 6 9 10 20 10 24 0 25 -6 6 -26 -18 -17 -82 -19 -90 -1 -5 10
-7 10 -12 0 -9 -20 -24 -15 -24 7 0 13 7 20 20 20 11 0 20 -4 20 -10z m320
-10 c0 -16 -7 -20 -30 -20 -16 0 -30 5 -30 10 0 6 9 10 20 10 11 0 20 5 20 10
0 6 5 10 10 10 6 0 10 -9 10 -20z m80 14 c0 -3 -7 -12 -15 -20 -13 -14 -17
-14 -30 0 -22 21 -19 26 15 26 17 0 30 -3 30 -6z m-494 -28 c21 -21 18 -26
-16 -26 -33 0 -36 4 -17 25 15 18 16 18 33 1z m574 4 c0 -5 14 -10 30 -10 17
0 30 -4 30 -10 0 -5 14 -10 30 -10 17 0 30 -4 30 -10 0 -5 9 -10 19 -10 11 0
22 -6 25 -12 5 -10 7 -10 12 0 7 14 44 16 44 2 0 -5 -4 -10 -10 -10 -5 0 -10
-4 -10 -10 0 -5 14 -10 30 -10 17 0 30 5 30 10 0 18 35 11 50 -10 8 -11 22
-20 32 -20 11 0 18 -7 18 -20 0 -15 7 -20 26 -20 23 0 54 -20 54 -34 0 -3 -9
-6 -20 -6 -11 0 -20 5 -20 10 0 6 -8 10 -18 10 -10 0 -24 9 -32 20 -8 12 -26
20 -42 20 -15 0 -28 5 -28 10 0 6 -18 10 -40 10 -22 0 -40 5 -40 10 0 6 -9 10
-20 10 -11 0 -20 5 -20 10 0 6 -9 10 -20 10 -11 0 -20 5 -20 10 0 6 -13 10
-30 10 -16 0 -30 5 -30 10 0 6 -12 10 -26 10 -14 0 -32 6 -40 14 -16 17 -18
26 -4 26 6 0 10 -4 10 -10z m-1540 -30 c0 -11 -4 -20 -10 -20 -5 0 -10 9 -10
20 0 11 5 20 10 20 6 0 10 -9 10 -20z m60 -30 c0 -23 -4 -30 -20 -30 -23 0
-27 23 -7 45 19 22 27 18 27 -15z m840 20 c0 -5 -13 -10 -30 -10 -16 0 -30 -4
-30 -10 0 -5 -13 -10 -30 -10 -16 0 -30 5 -30 10 0 6 14 10 30 10 17 0 30 5
30 10 0 6 14 10 30 10 17 0 30 -4 30 -10z m-800 -20 c0 -5 -4 -10 -10 -10 -5
0 -10 5 -10 10 0 6 5 10 10 10 6 0 10 -4 10 -10z m1284 -2 c5 -10 7 -10 12 0
7 14 44 16 44 2 0 -5 23 -10 50 -10 28 0 50 -4 50 -10 0 -5 18 -10 40 -10 22
0 40 -4 40 -10 0 -5 9 -10 20 -10 11 0 20 -4 20 -10 0 -5 18 -10 40 -10 22 0
40 -4 40 -10 0 -5 9 -10 20 -10 11 0 20 -4 20 -10 0 -5 14 -10 30 -10 17 0 30
-4 30 -10 0 -5 9 -10 20 -10 11 0 20 -4 20 -10 0 -5 13 -10 28 -10 16 0 34 -8
42 -20 8 -11 22 -20 32 -20 10 0 18 -4 18 -10 0 -5 9 -10 20 -10 11 0 20 -4
20 -10 0 -5 9 -10 20 -10 11 0 20 -4 20 -10 0 -5 8 -10 18 -10 10 0 24 -9 32
-20 8 -11 22 -20 32 -20 10 0 18 -4 18 -10 0 -5 8 -10 18 -10 10 0 24 -9 32
-20 8 -11 26 -20 40 -20 14 0 32 -9 40 -20 8 -12 26 -20 42 -20 21 0 28 5 28
20 0 26 8 25 33 -2 13 -16 21 -19 24 -10 3 6 13 12 24 12 30 0 26 -64 -6 -95
-25 -25 -95 -36 -95 -15 0 6 -9 10 -20 10 -11 0 -20 5 -20 10 0 6 -13 10 -30
10 -16 0 -30 5 -30 10 0 6 -8 10 -18 10 -10 0 -24 9 -32 20 -8 11 -21 20 -30
20 -9 0 -22 9 -30 20 -8 11 -22 20 -32 20 -10 0 -18 5 -18 10 0 6 -8 10 -18
10 -10 0 -24 9 -32 20 -8 11 -22 20 -32 20 -10 0 -18 5 -18 10 0 6 -9 10 -20
10 -11 0 -20 5 -20 10 0 6 -9 10 -20 10 -11 0 -20 5 -20 10 0 6 -9 10 -20 10
-11 0 -20 5 -20 10 0 6 -13 10 -30 10 -16 0 -30 5 -30 10 0 6 -9 10 -20 10
-11 0 -20 5 -20 10 0 6 -13 10 -30 10 -16 0 -30 5 -30 10 0 6 -9 10 -20 10
-11 0 -20 5 -20 10 0 6 -13 10 -30 10 -16 0 -30 5 -30 10 0 6 -9 10 -20 10
-11 0 -20 5 -20 10 0 6 -18 10 -40 10 -22 0 -40 5 -40 10 0 6 -40 10 -100 10
-60 0 -100 4 -100 10 0 6 -30 10 -70 10 -40 0 -70 -4 -70 -10 0 -6 -37 -10
-90 -10 -53 0 -90 -4 -90 -10 0 -5 -13 -10 -30 -10 -16 0 -30 -4 -30 -10 0 -5
-13 -10 -30 -10 -16 0 -30 -4 -30 -10 0 -5 -13 -10 -30 -10 -16 0 -30 -4 -30
-10 0 -5 -13 -10 -30 -10 -16 0 -30 -4 -30 -10 0 -5 -9 -10 -20 -10 -11 0 -20
-4 -20 -10 0 -5 -13 -10 -30 -10 -16 0 -30 -4 -30 -10 0 -5 -9 -10 -20 -10
-11 0 -20 -4 -20 -10 0 -5 -9 -10 -20 -10 -11 0 -20 -4 -20 -10 0 -5 -8 -10
-18 -10 -10 0 -24 -9 -32 -20 -8 -11 -21 -20 -30 -20 -9 0 -22 -9 -30 -20 -8
-11 -21 -20 -30 -20 -9 0 -22 -9 -30 -20 -8 -11 -21 -20 -30 -20 -9 0 -22 -9
-30 -20 -8 -11 -26 -20 -40 -20 -14 0 -32 -9 -40 -20 -8 -12 -26 -20 -42 -20
-15 0 -28 -4 -28 -10 0 -16 -89 -12 -106 4 -9 10 -14 37 -14 80 0 59 2 66 20
66 12 0 20 -7 20 -16 0 -29 27 -44 82 -44 42 0 57 4 68 20 8 11 21 20 30 20 9
0 22 9 30 20 8 12 26 20 42 20 15 0 28 5 28 10 0 6 9 10 20 10 11 0 20 5 20
10 0 6 9 10 20 10 11 0 20 5 20 10 0 6 9 10 20 10 11 0 20 5 20 10 0 6 9 10
20 10 13 0 20 7 20 20 0 16 7 20 30 20 17 0 30 5 30 10 0 6 9 10 20 10 11 0
20 5 20 10 0 6 8 10 18 10 10 0 24 9 32 20 8 12 26 20 42 20 15 0 28 5 28 10
0 6 9 10 20 10 22 0 27 16 8 23 -8 2 -9 8 -4 13 5 5 11 4 13 -3 6 -16 103 -18
103 -3 0 6 23 10 50 10 28 0 50 5 50 10 0 6 23 10 50 10 28 0 50 5 50 10 0 16
277 13 284 -2z m-1378 -22 c21 -21 17 -46 -6 -46 -16 0 -20 7 -20 30 0 34 5
37 26 16z m714 4 c0 -5 -9 -10 -20 -10 -11 0 -20 5 -20 10 0 6 9 10 20 10 11
0 20 -4 20 -10z m40 0 c0 -5 -4 -10 -10 -10 -5 0 -10 5 -10 10 0 6 5 10 10 10
6 0 10 -4 10 -10z m-460 -20 c0 -5 16 -10 36 -10 31 0 64 -18 64 -34 0 -3 -17
-6 -38 -6 -26 0 -42 6 -52 20 -8 11 -22 20 -32 20 -10 0 -18 5 -18 10 0 6 9
10 20 10 11 0 20 -4 20 -10z m400 -20 c0 -5 -12 -10 -26 -10 -15 0 -35 -9 -45
-21 -16 -19 -20 -20 -34 -6 -22 22 -19 27 15 27 17 0 30 5 30 10 0 6 14 10 30
10 17 0 30 -4 30 -10z m1580 -56 c0 -26 -6 -51 -14 -60 -17 -16 -46 -19 -46
-4 0 6 9 10 20 10 17 0 20 7 20 50 0 28 5 50 10 50 6 0 10 -21 10 -46z m-1980
16 c0 -5 14 -10 30 -10 23 0 30 -4 30 -20 0 -16 -7 -20 -30 -20 -23 0 -30 4
-30 20 0 13 -7 20 -20 20 -13 0 -20 -7 -20 -20 0 -11 5 -20 10 -20 6 0 10 -9
10 -20 0 -13 -7 -20 -20 -20 -22 0 -27 15 -7 24 10 5 10 7 0 12 -28 13 -4 63
30 64 9 0 17 -4 17 -10z m1100 -20 c0 -14 37 -12 44 3 5 10 7 10 12 0 3 -7 23
-13 45 -13 21 0 39 -4 39 -10 0 -5 14 -10 30 -10 17 0 30 -4 30 -10 0 -5 14
-10 30 -10 17 0 30 -4 30 -10 0 -5 9 -10 20 -10 11 0 20 -4 20 -10 0 -5 14
-10 30 -10 17 0 30 -4 30 -10 0 -5 12 -10 26 -10 23 0 54 -20 54 -34 0 -3 -13
-6 -30 -6 -16 0 -30 -4 -30 -10 0 -5 -18 -10 -40 -10 -22 0 -40 -4 -40 -10 0
-5 -18 -10 -40 -10 -22 0 -40 -4 -40 -10 0 -5 -18 -10 -40 -10 -22 0 -40 -4
-40 -10 0 -5 -18 -10 -40 -10 -22 0 -40 -4 -40 -10 0 -5 -9 -10 -20 -10 -13 0
-20 -7 -20 -20 0 -11 -4 -20 -10 -20 -5 0 -10 -9 -10 -20 0 -17 7 -20 40 -20
22 0 40 -4 40 -10 0 -5 -13 -10 -30 -10 -16 0 -30 -4 -30 -10 0 -5 -22 -10
-50 -10 -27 0 -50 -4 -50 -10 0 -6 -27 -10 -60 -10 -33 0 -60 4 -60 10 0 6
-22 10 -50 10 -27 0 -50 5 -50 10 0 6 -9 10 -20 10 -15 0 -20 7 -20 26 0 29
-21 54 -44 54 -9 0 -16 5 -16 10 0 6 -13 10 -30 10 -16 0 -30 5 -30 10 0 6 -9
10 -20 10 -11 0 -20 5 -20 10 0 6 -9 10 -20 10 -11 0 -20 5 -20 10 0 6 -9 10
-20 10 -11 0 -20 5 -20 10 0 6 -9 10 -20 10 -11 0 -20 5 -20 10 0 6 -9 10 -20
10 -11 0 -20 5 -20 10 0 6 -13 10 -30 10 -16 0 -30 5 -30 10 0 6 9 10 20 10
11 0 20 5 20 10 0 6 9 10 20 10 11 0 20 5 20 10 0 6 14 10 30 10 17 0 30 5 30
10 0 6 14 10 30 10 17 0 30 5 30 10 0 6 14 10 30 10 17 0 30 5 30 10 0 6 14
10 30 10 17 0 30 5 30 10 0 6 73 10 200 10 127 0 200 -4 200 -10z m640 -20
c16 -17 38 -30 52 -30 13 0 30 -9 38 -20 8 -11 22 -20 32 -20 10 0 18 -4 18
-10 0 -18 -55 -11 -70 10 -8 12 -26 20 -42 20 -20 0 -28 5 -28 18 0 10 -9 24
-20 32 -19 14 -27 30 -14 30 3 0 19 -13 34 -30z m320 20 c0 -5 -4 -10 -10 -10
-5 0 -10 5 -10 10 0 6 5 10 10 10 6 0 10 -4 10 -10z m-1840 -20 c0 -5 -9 -10
-20 -10 -11 0 -20 -4 -20 -10 0 -5 -4 -10 -10 -10 -5 0 -10 9 -10 20 0 16 7
20 30 20 17 0 30 -4 30 -10z m-400 -20 c0 -5 -4 -10 -10 -10 -5 0 -10 5 -10
10 0 6 5 10 10 10 6 0 10 -4 10 -10z m60 -40 c0 -49 1 -50 30 -50 23 0 30 -4
30 -20 0 -11 5 -20 10 -20 6 0 10 9 10 20 0 11 5 20 10 20 15 0 12 -29 -4 -46
-17 -16 -66 -19 -66 -4 0 6 5 10 10 10 6 0 10 5 10 10 0 6 -13 10 -30 10 -16
0 -30 -4 -30 -10 0 -5 5 -10 10 -10 6 0 10 -9 10 -20 0 -11 -4 -20 -10 -20 -5
0 -10 9 -10 19 0 11 -6 22 -12 25 -10 5 -10 7 0 12 7 4 12 27 12 65 0 33 4 59
10 59 6 0 10 -22 10 -50z m-220 20 c0 -5 -4 -10 -10 -10 -5 0 -10 5 -10 10 0
6 5 10 10 10 6 0 10 -4 10 -10z m480 -10 c0 -24 -6 -25 -26 -6 -19 20 -18 26
6 26 13 0 20 -7 20 -20z m-60 -20 c0 -13 -7 -20 -19 -20 -11 0 -21 -6 -24 -12
-2 -7 -8 -10 -12 -6 -7 7 34 56 48 57 4 1 7 -8 7 -19z m2200 14 c0 -3 -6 -12
-14 -20 -20 -19 -26 -18 -26 6 0 13 7 20 20 20 11 0 20 -3 20 -6z m-2620 -24
c0 -5 -4 -10 -10 -10 -5 0 -10 5 -10 10 0 6 5 10 10 10 6 0 10 -4 10 -10z
m2280 -20 c0 -5 -9 -10 -20 -10 -11 0 -20 5 -20 10 0 6 9 10 20 10 11 0 20 -4
20 -10z m106 -4 c8 -8 14 -31 14 -50 0 -36 -13 -48 -24 -23 -5 10 -7 10 -12 0
-7 -15 -44 -17 -44 -3 0 6 -9 10 -20 10 -11 0 -20 5 -20 10 0 6 -9 10 -20 10
-11 0 -20 5 -20 10 0 18 55 11 70 -10 19 -26 50 -26 50 -1 0 11 6 21 13 24 7
2 8 8 3 13 -5 5 -11 4 -13 -3 -4 -12 -43 -19 -43 -8 0 11 25 34 38 35 7 0 20
-6 28 -14z m94 -16 c0 -16 -4 -30 -10 -30 -5 0 -10 14 -10 30 0 17 5 30 10 30
6 0 10 -13 10 -30z m-260 0 c0 -5 -4 -10 -10 -10 -5 0 -10 5 -10 10 0 6 5 10
10 10 6 0 10 -4 10 -10z m440 0 c0 -5 -13 -10 -30 -10 -16 0 -30 -3 -30 -6 0
-11 29 -34 44 -34 9 0 16 -8 16 -20 0 -26 -8 -25 -33 3 -13 15 -21 18 -24 10
-9 -24 -23 -13 -23 17 0 17 -4 30 -10 30 -5 0 -10 5 -10 10 0 6 23 10 50 10
28 0 50 -4 50 -10z m-2660 -40 c0 -5 -4 -10 -10 -10 -5 0 -10 5 -10 10 0 6 5
10 10 10 6 0 10 -4 10 -10z m2500 -16 c0 -3 -6 -12 -14 -20 -20 -19 -26 -18
-26 6 0 13 7 20 20 20 11 0 20 -3 20 -6z m-1900 -24 c0 -5 18 -10 40 -10 22 0
40 -4 40 -10 0 -5 23 -10 50 -10 28 0 50 -4 50 -10 0 -5 9 -10 20 -10 11 0 20
-4 20 -10 0 -5 14 -10 30 -10 17 0 30 -4 30 -10 0 -6 -63 -10 -170 -10 -107 0
-170 4 -170 10 0 6 -9 10 -20 10 -11 0 -20 -4 -20 -10 0 -5 -22 -10 -50 -10
-27 0 -50 5 -50 10 0 6 9 10 20 10 11 0 20 5 20 10 0 6 9 10 20 10 11 0 20 5
20 10 0 6 8 10 18 10 10 0 24 9 32 20 15 21 70 28 70 10z m1500 -40 c0 -5 9
-10 20 -10 11 0 20 -4 20 -10 0 -5 9 -10 20 -10 11 0 20 -4 20 -10 0 -15 -97
-12 -104 3 -5 10 -7 10 -12 0 -7 -16 -384 -19 -384 -3 0 6 23 10 50 10 28 0
50 5 50 10 0 6 27 10 60 10 33 0 60 4 60 10 0 6 40 10 100 10 60 0 100 -4 100
-10z m520 -40 c0 -27 5 -50 10 -50 6 0 10 -4 10 -10 0 -5 -9 -10 -20 -10 -18
0 -20 7 -20 60 0 33 4 60 10 60 6 0 10 -22 10 -50z m-960 -20 c0 -5 -22 -10
-50 -10 -27 0 -50 5 -50 10 0 6 23 10 50 10 28 0 50 -4 50 -10z m-1000 -80 c0
-27 -4 -50 -10 -50 -5 0 -10 -22 -10 -50 0 -27 -4 -50 -10 -50 -5 0 -10 -4
-10 -10 0 -5 8 -10 18 -10 10 0 24 -9 32 -20 10 -14 26 -20 52 -20 21 0 38 5
38 10 0 6 -13 10 -30 10 -16 0 -30 5 -30 10 0 6 17 10 38 10 26 0 42 6 52 20
8 11 22 20 32 20 14 0 18 8 18 40 0 39 1 40 36 40 27 0 43 -7 64 -30 32 -34
40 -37 40 -14 0 9 -13 29 -30 44 -16 15 -30 35 -30 44 0 9 -8 16 -20 16 -11 0
-20 5 -20 10 0 6 14 10 30 10 17 0 30 -4 30 -10 0 -5 9 -10 20 -10 11 0 20 -4
20 -10 0 -14 38 -12 43 3 3 8 12 4 26 -13 18 -19 24 -22 31 -11 7 12 11 12 24
-2 9 -8 16 -23 16 -31 0 -9 5 -16 10 -16 6 0 10 -30 10 -70 0 -40 -4 -70 -10
-70 -5 0 -10 -7 -10 -15 0 -20 -65 -85 -85 -85 -8 0 -15 -4 -15 -10 0 -5 -18
-10 -40 -10 -22 0 -40 -4 -40 -10 0 -6 -27 -10 -60 -10 -33 0 -60 -4 -60 -10
0 -5 -9 -10 -20 -10 -11 0 -20 5 -20 10 0 6 -13 10 -30 10 -16 0 -30 -4 -30
-10 0 -6 -57 -10 -150 -10 -93 0 -150 4 -150 10 0 6 -11 10 -25 10 -14 0 -37
11 -50 25 -14 13 -25 36 -25 50 0 14 -4 25 -10 25 -5 0 -10 14 -10 30 0 17 -4
30 -10 30 -6 0 -10 32 -10 75 0 67 3 79 25 100 13 14 36 25 50 25 14 0 25 5
25 10 0 6 18 10 40 10 22 0 40 5 40 10 0 6 40 10 100 10 l100 0 0 -50z m1240
40 c0 -5 -4 -10 -10 -10 -5 0 -10 -18 -10 -40 0 -22 -4 -40 -10 -40 -5 0 -10
-9 -10 -20 0 -11 -4 -20 -10 -20 -5 0 -10 -18 -10 -40 0 -38 2 -40 30 -40 17
0 30 -4 30 -10 0 -5 -9 -10 -20 -10 -11 0 -20 -4 -20 -10 0 -5 23 -10 50 -10
28 0 50 5 50 10 0 6 -9 10 -20 10 -11 0 -20 5 -20 10 0 6 16 10 36 10 36 0 81
29 56 38 -21 7 -14 42 8 42 17 0 20 7 20 40 0 36 2 40 25 40 26 0 75 -40 75
-60 0 -12 24 -40 34 -40 3 0 6 32 6 70 0 40 4 70 10 70 6 0 10 -4 10 -10 0 -5
20 -10 45 -10 54 0 95 -33 95 -75 0 -23 -3 -25 -50 -25 -27 0 -50 -4 -50 -10
0 -5 12 -10 26 -10 14 0 32 -6 40 -14 16 -17 19 -46 4 -46 -5 0 -10 5 -10 10
0 6 -13 10 -30 10 -16 0 -30 -3 -30 -6 0 -14 31 -34 54 -34 22 0 26 -4 26 -30
0 -16 -4 -30 -10 -30 -5 0 -10 -9 -10 -20 0 -11 -4 -20 -10 -20 -5 0 -10 -9
-10 -20 0 -13 -7 -20 -20 -20 -11 0 -20 -4 -20 -10 0 -5 -18 -10 -40 -10 -22
0 -40 -4 -40 -10 0 -16 -357 -13 -364 3 -5 10 -7 10 -12 0 -7 -15 -64 -18 -64
-3 0 6 -13 10 -30 10 -16 0 -30 5 -30 10 0 6 -13 10 -30 10 -16 0 -30 5 -30
10 0 6 -11 10 -25 10 -29 0 -75 40 -75 65 0 8 -4 15 -10 15 -6 0 -10 37 -10
90 0 53 4 90 10 90 6 0 10 9 10 20 0 13 7 20 20 20 11 0 20 5 20 10 0 6 23 10
50 10 28 0 50 5 50 10 0 6 23 10 50 10 28 0 50 5 50 10 0 6 33 10 80 10 47 0
80 -4 80 -10z m-1940 -80 c0 -5 7 -10 15 -10 9 0 36 -20 60 -45 36 -36 45 -51
45 -80 0 -19 5 -35 10 -35 6 0 10 -22 10 -50 0 -27 5 -50 10 -50 6 0 10 -9 10
-20 0 -11 5 -20 10 -20 6 0 10 -22 10 -50 0 -27 5 -50 10 -50 6 0 10 -22 10
-50 0 -27 5 -50 10 -50 6 0 10 -13 10 -30 0 -16 5 -30 10 -30 6 0 10 -13 10
-30 0 -27 -3 -30 -30 -30 -22 0 -30 5 -30 18 0 10 -9 24 -20 32 -11 8 -20 22
-20 32 0 10 -4 18 -10 18 -5 0 -10 18 -10 40 0 22 5 40 10 40 6 0 10 9 10 20
0 11 5 20 10 20 6 0 10 18 10 40 0 22 -4 40 -10 40 -5 0 -10 14 -10 30 0 17
-4 30 -10 30 -5 0 -10 14 -10 30 0 17 -4 30 -10 30 -5 0 -10 8 -10 18 0 10 -9
24 -20 32 -11 8 -20 20 -20 28 0 18 -46 62 -65 62 -8 0 -15 5 -15 10 0 6 -18
10 -40 10 -33 0 -40 -3 -40 -20 0 -11 -4 -20 -10 -20 -5 0 -10 -13 -10 -30 0
-16 -4 -30 -10 -30 -5 0 -10 -18 -10 -40 0 -22 5 -40 10 -40 6 0 10 -13 10
-30 0 -23 4 -30 20 -30 16 0 20 7 20 30 0 17 -4 30 -10 30 -5 0 -10 23 -10 50
0 28 5 50 10 50 6 0 10 9 10 20 0 29 45 26 75 -5 14 -13 25 -36 25 -50 0 -21
-5 -25 -30 -25 -23 0 -30 -4 -30 -20 0 -16 7 -20 30 -20 17 0 30 5 30 10 0 18
31 10 55 -15 28 -27 34 -75 10 -75 -20 0 -65 -45 -65 -65 0 -8 -4 -15 -10 -15
-6 0 -10 -27 -10 -60 0 -64 -7 -72 -30 -40 -8 11 -18 20 -22 20 -4 0 -8 -9 -8
-20 0 -11 5 -20 10 -20 6 0 10 -9 10 -20 0 -11 5 -20 10 -20 6 0 10 -7 10 -15
0 -20 65 -85 85 -85 8 0 15 -4 15 -10 0 -5 23 -10 50 -10 28 0 50 5 50 10 0
15 49 12 66 -4 18 -19 18 -93 0 -112 -17 -16 -66 -19 -66 -4 0 6 -9 10 -20 10
-11 0 -20 5 -20 10 0 6 -7 10 -16 10 -9 0 -29 14 -44 30 -15 17 -33 30 -40 30
-16 0 -40 25 -40 42 0 8 -9 20 -20 28 -11 8 -20 21 -20 30 0 9 -9 22 -20 30
-11 8 -20 22 -20 32 0 10 -4 18 -10 18 -5 0 -10 9 -10 20 0 11 -4 20 -10 20
-5 0 -10 14 -10 30 0 17 -4 30 -10 30 -5 0 -10 14 -10 30 0 17 -4 30 -10 30
-6 0 -10 50 -10 130 0 80 4 130 10 130 6 0 10 9 10 20 0 11 5 20 10 20 6 0 10
7 10 15 0 30 24 44 73 45 26 0 47 -4 47 -10z m2815 -15 c14 -13 25 -36 25 -50
0 -14 5 -25 10 -25 6 0 10 -50 10 -130 0 -80 -4 -130 -10 -130 -5 0 -10 -18
-10 -40 0 -22 -4 -40 -10 -40 -5 0 -10 -9 -10 -20 0 -11 -4 -20 -10 -20 -5 0
-10 -9 -10 -20 0 -11 -4 -20 -10 -20 -5 0 -10 -9 -10 -20 0 -11 -4 -20 -10
-20 -5 0 -10 -7 -10 -16 0 -9 -13 -29 -30 -44 -16 -15 -30 -35 -30 -44 0 -9
-7 -16 -16 -16 -8 0 -33 -18 -54 -40 -21 -22 -46 -40 -54 -40 -9 0 -16 -4 -16
-10 0 -5 -9 -10 -20 -10 -11 0 -20 -4 -20 -10 0 -15 -49 -12 -66 4 -18 19 -18
93 0 112 17 16 66 19 66 4 0 -5 23 -10 50 -10 28 0 50 5 50 10 0 6 7 10 15 10
19 0 65 44 65 62 0 8 9 20 20 28 11 8 20 22 20 32 0 10 5 18 10 18 6 0 10 9
10 20 0 11 -4 20 -8 20 -4 0 -14 -9 -22 -20 -23 -32 -30 -24 -30 40 0 33 -4
60 -10 60 -5 0 -10 7 -10 16 0 8 -19 34 -42 56 -26 25 -38 43 -30 45 6 3 12
11 12 20 0 8 6 21 14 29 17 16 46 19 46 4 0 -5 14 -10 30 -10 21 0 30 5 30 16
0 20 -24 44 -44 44 -9 0 -16 7 -16 15 0 25 46 65 75 65 21 0 25 -5 25 -30 0
-16 5 -30 10 -30 6 0 10 -13 10 -30 0 -16 -4 -30 -10 -30 -5 0 -10 -18 -10
-40 0 -33 3 -40 20 -40 16 0 20 7 20 30 0 17 5 30 10 30 6 0 10 23 10 50 0 28
-4 50 -10 50 -5 0 -10 9 -10 20 0 11 -4 20 -10 20 -5 0 -10 9 -10 20 0 16 -7
20 -30 20 -16 0 -30 -4 -30 -10 0 -5 -11 -10 -25 -10 -27 0 -75 -40 -75 -62 0
-8 -9 -20 -20 -28 -11 -8 -20 -22 -20 -32 0 -10 -4 -18 -10 -18 -5 0 -10 -13
-10 -30 0 -16 -4 -30 -10 -30 -5 0 -10 -13 -10 -30 0 -16 -4 -30 -10 -30 -5 0
-10 -18 -10 -40 0 -22 5 -40 10 -40 6 0 10 -9 10 -20 0 -11 5 -20 10 -20 6 0
10 -22 10 -50 0 -27 -4 -50 -10 -50 -5 0 -10 -9 -10 -20 0 -13 -7 -20 -20 -20
-13 0 -20 -7 -20 -20 0 -16 -7 -20 -30 -20 l-30 0 0 70 c0 40 4 70 10 70 6 0
10 18 10 40 0 22 5 40 10 40 6 0 10 14 10 30 0 17 5 30 10 30 6 0 10 18 10 40
0 33 3 40 20 40 17 0 20 7 20 50 0 28 5 50 10 50 6 0 10 14 10 30 0 17 5 30
10 30 6 0 10 7 10 15 0 20 65 85 85 85 8 0 15 5 15 10 0 6 20 10 45 10 35 0
52 -6 70 -25z m-1390 -70 c19 -19 35 -41 35 -50 0 -8 5 -15 10 -15 6 0 10 -13
10 -30 0 -16 5 -30 10 -30 6 0 10 -7 10 -15 0 -9 16 -31 35 -50 26 -27 43 -35
70 -35 19 0 35 -4 35 -10 0 -5 18 -10 40 -10 22 0 40 -4 40 -10 0 -5 23 -10
50 -10 28 0 50 -4 50 -10 0 -6 67 -10 180 -10 113 0 180 4 180 10 0 6 27 10
60 10 33 0 60 4 60 10 0 6 5 10 10 10 6 0 10 -22 10 -50 0 -27 -4 -50 -10 -50
-5 0 -10 -13 -10 -30 0 -16 -4 -30 -10 -30 -5 0 -10 -9 -10 -20 0 -11 -4 -20
-10 -20 -5 0 -10 -9 -10 -20 0 -11 -4 -20 -10 -20 -5 0 -10 -8 -10 -18 0 -10
-9 -24 -20 -32 -11 -8 -20 -22 -20 -32 0 -24 32 -23 50 2 8 11 22 20 32 20 11
0 18 -7 18 -20 0 -11 -4 -20 -10 -20 -5 0 -10 -8 -10 -18 0 -10 -9 -24 -20
-32 -11 -8 -20 -22 -20 -32 0 -10 -4 -18 -10 -18 -5 0 -10 -9 -10 -20 0 -11
-4 -20 -10 -20 -5 0 -10 -8 -10 -18 0 -10 -9 -24 -20 -32 -11 -8 -20 -18 -20
-22 0 -4 9 -8 20 -8 11 0 20 5 20 10 0 6 7 10 15 10 18 0 85 64 85 80 0 12 24
40 34 40 3 0 6 -13 6 -30 0 -16 -4 -30 -10 -30 -5 0 -10 -13 -10 -30 0 -16 -4
-30 -10 -30 -5 0 -10 -13 -10 -30 0 -16 -4 -30 -10 -30 -5 0 -10 -9 -10 -20 0
-11 -4 -20 -10 -20 -5 0 -10 -9 -10 -20 0 -11 -4 -20 -10 -20 -5 0 -10 -7 -10
-15 0 -18 -84 -105 -100 -105 -6 0 -33 -22 -60 -50 -27 -27 -54 -50 -60 -50
-6 0 -30 -19 -52 -43 -25 -25 -43 -37 -45 -29 -3 6 -11 12 -19 12 -17 0 -64
44 -64 60 0 19 -27 40 -50 40 -24 0 -50 -22 -50 -42 0 -8 -9 -20 -20 -28 -11
-8 -20 -20 -20 -27 0 -8 -20 -34 -45 -58 -42 -42 -48 -45 -100 -45 l-55 0 0
60 0 60 -100 0 c-60 0 -100 4 -100 10 0 6 -33 10 -80 10 l-80 0 0 -30 c0 -16
5 -30 10 -30 6 0 10 -18 10 -40 l0 -40 -60 0 c-33 0 -60 4 -60 10 0 6 -9 10
-20 10 -11 0 -20 5 -20 10 0 6 -7 10 -16 10 -26 0 -44 26 -44 64 0 20 -4 36
-10 36 -5 0 -10 18 -10 40 0 36 -2 40 -25 40 -35 0 -115 -80 -115 -115 0 -39
-26 -31 -80 25 -27 28 -54 50 -59 50 -16 0 -201 187 -201 203 0 7 -9 19 -20
27 -12 8 -20 26 -20 42 0 15 -4 28 -10 28 -5 0 -10 14 -10 30 0 17 -4 30 -10
30 -5 0 -10 18 -10 40 0 22 2 40 6 40 3 0 32 -27 64 -60 54 -55 90 -75 90 -50
0 6 -4 10 -10 10 -5 0 -10 9 -10 20 0 11 -4 20 -10 20 -5 0 -10 9 -10 20 0 11
-4 20 -10 20 -5 0 -10 9 -10 20 0 11 -4 20 -10 20 -5 0 -10 8 -10 18 0 10 -9
24 -20 32 -11 8 -20 22 -20 32 0 10 -4 18 -10 18 -5 0 -10 9 -10 20 0 11 4 20
8 20 4 0 14 -9 22 -20 8 -11 22 -20 32 -20 10 0 18 -4 18 -10 0 -5 5 -10 10
-10 6 0 10 9 10 20 0 11 -4 20 -10 20 -5 0 -10 13 -10 28 0 16 -8 34 -20 42
-11 8 -20 22 -20 32 0 10 -4 18 -10 18 -5 0 -10 14 -10 30 0 17 -4 30 -10 30
-5 0 -10 14 -10 30 0 17 -4 30 -10 30 -5 0 -10 14 -10 30 0 27 3 30 30 30 17
0 30 -4 30 -10 0 -5 23 -10 50 -10 28 0 50 -4 50 -10 0 -16 297 -13 304 3 5
10 7 10 12 0 7 -15 104 -18 104 -3 0 6 9 10 20 10 11 0 20 5 20 10 0 6 18 10
40 10 22 0 40 5 40 10 0 6 18 10 40 10 38 0 40 -2 40 -30 0 -16 -4 -30 -10
-30 -5 0 -10 -7 -10 -16 0 -18 -23 -44 -40 -44 -16 0 -60 -47 -60 -65 0 -8 -4
-15 -10 -15 -5 0 -10 -25 -10 -55 0 -52 3 -58 45 -100 40 -40 49 -45 90 -45
25 0 45 -4 45 -10 0 -5 14 -10 30 -10 17 0 30 -3 30 -6 0 -11 -29 -34 -44 -34
-9 0 -16 -4 -16 -10 0 -5 -9 -10 -20 -10 -11 0 -20 -4 -20 -10 0 -5 -22 -10
-50 -10 -27 0 -50 -4 -50 -10 0 -5 -13 -10 -30 -10 -16 0 -30 -4 -30 -10 0 -5
-13 -10 -30 -10 -16 0 -30 -4 -30 -10 0 -5 -9 -10 -20 -10 -11 0 -20 -4 -20
-10 0 -5 -9 -10 -20 -10 -11 0 -20 -4 -20 -10 0 -5 5 -10 10 -10 6 0 10 -9 10
-20 0 -11 -4 -20 -10 -20 -5 0 -10 -13 -10 -29 0 -16 -6 -31 -12 -34 -9 -3 -6
-11 10 -24 12 -11 22 -28 22 -37 0 -9 8 -16 20 -16 11 0 20 -4 20 -10 0 -5 9
-10 20 -10 11 0 20 -4 20 -10 0 -5 9 -10 20 -10 11 0 20 -4 20 -10 0 -5 8 -10
18 -10 10 0 24 -9 32 -20 8 -11 22 -20 32 -20 10 0 18 -4 18 -10 0 -5 14 -10
30 -10 17 0 30 -4 30 -10 0 -6 70 -10 190 -10 120 0 190 4 190 10 0 6 14 10
30 10 17 0 30 5 30 10 0 6 18 10 40 10 22 0 40 5 40 10 0 6 14 10 30 10 17 0
30 5 30 10 0 6 8 10 18 10 10 0 24 9 32 20 8 11 20 20 28 20 28 0 42 28 42 84
0 31 -4 56 -10 56 -5 0 -10 9 -10 20 0 13 7 20 20 20 13 0 20 7 20 20 0 16 -7
20 -30 20 -16 0 -30 5 -30 10 0 6 -13 10 -30 10 -16 0 -30 5 -30 10 0 6 -13
10 -30 10 -16 0 -30 5 -30 10 0 6 -13 10 -30 10 -16 0 -30 5 -30 10 0 6 -18
10 -40 10 -22 0 -40 5 -40 10 0 6 -13 10 -30 10 -16 0 -30 5 -30 10 0 6 -18
10 -40 10 -30 0 -40 4 -40 16 0 31 27 44 94 44 37 0 66 4 66 10 0 6 7 10 15
10 9 0 27 11 40 25 21 20 25 34 25 80 0 30 -4 55 -10 55 -5 0 -10 9 -10 20 0
11 -4 20 -10 20 -5 0 -10 9 -10 20 0 11 -4 20 -10 20 -5 0 -10 9 -10 20 0 13
-7 20 -20 20 -16 0 -20 -7 -20 -30 0 -16 5 -30 10 -30 6 0 10 -9 10 -20 0 -11
5 -20 10 -20 6 0 10 -9 10 -20 0 -11 5 -20 10 -20 6 0 10 -13 10 -30 0 -16 -4
-30 -10 -30 -5 0 -10 -9 -10 -20 0 -13 -7 -20 -20 -20 -11 0 -20 5 -20 10 0 6
-18 10 -40 10 -22 0 -40 -4 -40 -10 0 -5 -9 -10 -20 -10 -11 0 -20 -4 -20 -10
0 -5 -8 -10 -18 -10 -10 0 -24 -9 -32 -20 -15 -21 -50 -28 -50 -10 0 6 -21 10
-46 10 -40 0 -50 5 -84 40 -25 26 -47 40 -64 40 -14 0 -26 -4 -26 -10 0 -15
-29 -12 -46 4 -16 17 -19 66 -4 66 6 0 10 7 10 16 0 8 18 33 40 54 22 21 40
45 40 52 0 7 9 20 20 28 11 8 20 22 20 32 0 10 5 18 10 18 6 0 10 14 10 30 0
17 -4 30 -10 30 -5 0 -10 14 -10 30 0 17 5 30 10 30 6 0 10 9 10 20 0 11 5 20
10 20 6 0 10 9 10 20 0 11 5 20 10 20 6 0 10 7 10 15 0 9 15 31 33 50 26 28
40 34 75 34 36 1 48 -5 77 -34z m615 -15 c0 -5 -9 -10 -20 -10 -11 0 -20 5
-20 10 0 6 9 10 20 10 11 0 20 -4 20 -10z m-1920 -270 c0 -11 -4 -20 -10 -20
-5 0 -10 -9 -10 -20 0 -11 -4 -20 -10 -20 -5 0 -10 -13 -10 -30 0 -34 -5 -37
-28 -13 -12 12 -13 18 -4 21 6 2 12 15 12 28 0 23 35 72 53 73 4 1 7 -8 7 -19z
m2506 -14 c16 -16 19 -86 4 -86 -5 0 -10 13 -10 28 0 16 -8 34 -20 42 -11 8
-20 18 -20 22 0 13 31 9 46 -6z m34 -116 c0 -5 -4 -10 -10 -10 -5 0 -10 -9
-10 -20 0 -11 -4 -20 -10 -20 -14 0 -12 28 3 45 14 17 27 19 27 5z m-2580 -48
c0 -10 9 -24 20 -32 11 -8 20 -22 20 -32 0 -11 -7 -18 -20 -18 -16 0 -20 7
-20 30 0 17 -4 30 -10 30 -5 0 -10 9 -10 20 0 11 5 20 10 20 6 0 10 -8 10 -18z
m2540 -52 c0 -23 -4 -30 -20 -30 -11 0 -20 5 -20 10 0 6 5 10 10 10 6 0 10 9
10 20 0 11 5 20 10 20 6 0 10 -13 10 -30z m-1240 -160 c0 -5 -4 -10 -10 -10
-5 0 -10 -25 -10 -56 0 -54 -14 -84 -40 -84 -22 0 -40 29 -40 64 0 20 5 36 10
36 6 0 10 14 10 30 0 28 2 30 40 30 22 0 40 -4 40 -10z m1306 -124 c8 -8 14
-26 14 -40 0 -14 5 -26 10 -26 6 0 10 -53 10 -140 0 -87 4 -140 10 -140 6 0
10 -18 10 -40 0 -22 5 -40 10 -40 6 0 10 -18 10 -40 0 -33 -3 -40 -20 -40 -11
0 -20 5 -20 10 0 6 -22 10 -50 10 -27 0 -50 -4 -50 -10 0 -6 -27 -10 -60 -10
-33 0 -60 -4 -60 -10 0 -5 -7 -10 -15 -10 -18 0 -85 64 -85 81 0 6 -13 24 -30
39 -16 15 -30 35 -30 44 0 9 -4 16 -10 16 -6 0 -10 30 -10 70 0 40 4 70 10 70
6 0 10 18 10 40 0 22 5 40 10 40 6 0 10 14 10 30 0 17 5 30 10 30 6 0 10 11
10 25 0 49 14 54 158 55 103 0 137 -3 148 -14z m-1566 -36 c0 -6 60 -10 160
-10 100 0 160 4 160 10 0 6 27 10 60 10 33 0 60 -4 60 -10 0 -14 37 -12 44 3
5 10 7 10 12 0 7 -15 44 -17 44 -3 0 6 9 10 20 10 11 0 20 -4 20 -10 0 -5 14
-10 30 -10 17 0 30 -3 30 -6 0 -11 -29 -34 -44 -34 -20 0 -21 -27 -2 -46 21
-21 26 -18 26 16 0 27 3 30 30 30 23 0 30 -4 30 -20 0 -11 5 -20 10 -20 23 0
7 -33 -35 -75 -29 -30 -53 -45 -70 -45 -14 0 -25 -4 -25 -10 0 -5 -9 -10 -20
-10 -11 0 -20 -4 -20 -10 0 -5 -22 -10 -50 -10 -27 0 -50 -4 -50 -10 0 -5 -18
-10 -40 -10 -22 0 -40 -4 -40 -10 0 -6 -57 -10 -150 -10 -93 0 -150 4 -150 10
0 6 -16 10 -36 10 -27 0 -43 7 -64 30 -16 17 -38 30 -52 30 -13 0 -30 9 -38
20 -8 11 -20 20 -28 20 -12 0 -62 43 -62 55 0 3 9 5 20 5 11 0 20 5 20 10 0
14 38 12 43 -2 2 -7 8 -10 12 -6 10 9 -40 58 -60 58 -10 0 -15 10 -15 30 l0
30 110 0 c67 0 110 -4 110 -10z m-593 -267 c23 -22 32 -38 25 -41 -8 -2 -12
-27 -12 -71 0 -55 3 -69 20 -81 14 -10 20 -26 20 -52 0 -21 -4 -38 -10 -38 -5
0 -10 -13 -10 -30 0 -16 -4 -30 -10 -30 -5 0 -10 -9 -10 -20 0 -11 -4 -20 -10
-20 -5 0 -10 5 -10 10 0 6 -18 10 -40 10 -22 0 -40 5 -40 10 0 6 -18 10 -40
10 l-40 0 0 150 c0 93 4 150 10 150 6 0 10 9 10 20 0 13 7 20 20 20 11 0 20 5
20 10 0 6 9 10 20 10 11 0 20 5 20 10 0 21 32 8 67 -27z m1733 7 c0 -16 5 -30
10 -30 6 0 10 -13 10 -28 0 -16 8 -34 20 -42 11 -8 20 -21 20 -30 0 -9 9 -22
20 -30 15 -11 20 -26 20 -62 0 -41 -3 -48 -20 -48 -11 0 -20 -4 -20 -10 0 -5
-12 -10 -26 -10 -29 0 -54 -21 -54 -44 0 -12 -10 -16 -40 -16 -38 0 -40 2 -40
30 0 17 -4 30 -10 30 -5 0 -10 16 -10 36 0 27 7 43 30 64 17 15 30 35 30 44 0
9 5 16 10 16 6 0 10 9 10 20 0 11 -4 20 -10 20 -5 0 -10 8 -10 18 0 10 -9 24
-20 32 -40 29 -15 69 43 70 35 0 37 -2 37 -30z m-102 -77 c17 -17 22 -28 14
-31 -7 -2 -12 -15 -12 -29 0 -13 -7 -31 -15 -39 -26 -26 -45 5 -45 70 0 65 14
72 58 29z m-1552 -7 c8 -8 14 -34 14 -60 0 -39 -3 -46 -20 -46 -18 0 -20 7
-20 60 0 63 3 69 26 46z m1440 -60 c8 -8 14 -31 14 -50 0 -20 5 -36 10 -36 6
0 10 -9 10 -20 0 -11 5 -20 10 -20 6 0 10 -13 10 -30 0 -16 5 -30 10 -30 6 0
10 -9 10 -20 0 -11 -4 -20 -10 -20 -5 0 -10 -12 -10 -26 0 -17 -16 -41 -50
-74 -27 -27 -50 -54 -50 -60 0 -20 -49 -60 -75 -60 -21 0 -25 5 -25 30 0 17
-4 30 -10 30 -5 0 -10 -9 -10 -20 0 -11 -4 -20 -10 -20 -5 0 -10 -13 -10 -30
0 -27 -3 -30 -30 -30 -23 0 -30 -4 -30 -20 0 -11 -4 -20 -10 -20 -5 0 -10 9
-10 20 0 11 5 20 10 20 6 0 10 9 10 20 0 11 -4 20 -10 20 -16 0 -12 50 5 67 9
8 19 12 23 8 4 -4 1 -10 -5 -12 -7 -3 -13 -18 -13 -34 0 -22 5 -29 20 -29 16
0 20 7 20 30 0 23 4 30 20 30 11 0 20 5 20 10 0 14 38 12 43 -2 2 -7 8 -10 12
-6 5 5 -2 16 -13 27 -12 10 -22 28 -22 40 0 25 -42 71 -65 71 -10 0 -15 -10
-15 -30 0 -16 5 -30 10 -30 6 0 10 -9 10 -20 0 -11 -4 -20 -10 -20 -5 0 -10 9
-10 20 0 13 -7 20 -20 20 -11 0 -20 5 -20 10 0 6 -9 10 -20 10 -11 0 -20 -4
-20 -10 0 -5 -13 -10 -30 -10 -16 0 -30 -4 -30 -10 0 -5 -7 -10 -15 -10 -18 0
-65 -44 -65 -60 0 -20 -28 -40 -54 -40 -24 0 -26 -3 -26 -50 0 -27 -4 -50 -10
-50 -5 0 -10 9 -10 19 0 11 -6 22 -12 25 -10 5 -10 7 0 12 6 3 12 19 12 35 0
22 5 29 20 29 11 0 20 5 20 10 0 6 7 10 15 10 15 0 65 42 65 55 0 3 -45 5
-100 5 -60 0 -100 -4 -100 -10 0 -6 -27 -10 -60 -10 -33 0 -60 4 -60 10 0 6
27 10 60 10 33 0 60 4 60 10 0 6 27 10 60 10 33 0 60 4 60 10 0 6 30 10 70 10
40 0 70 4 70 10 0 6 14 10 30 10 17 0 30 5 30 10 0 6 9 10 20 10 13 0 20 7 20
20 0 12 7 20 16 20 19 0 44 24 44 42 0 8 9 20 20 28 11 8 20 20 20 28 0 17 45
62 62 62 8 0 20 9 28 20 8 11 22 20 32 20 10 0 18 5 18 10 0 14 9 12 26 -4z
m-1326 -36 c0 -14 38 -12 43 3 2 6 8 8 13 4 5 -4 2 -13 -6 -18 -11 -8 -12 -12
-2 -16 6 -2 12 -18 12 -34 0 -16 5 -29 10 -29 6 0 10 -7 10 -15 0 -20 45 -65
65 -65 8 0 15 -9 15 -20 0 -13 7 -20 18 -20 10 0 24 -9 32 -20 8 -12 26 -20
42 -20 15 0 28 -4 28 -10 0 -5 9 -10 20 -10 11 0 20 -4 20 -10 0 -5 18 -10 40
-10 22 0 40 -4 40 -10 0 -5 -22 -10 -50 -10 -27 0 -50 5 -50 10 0 6 -18 10
-40 10 -22 0 -40 5 -40 10 0 6 -7 10 -15 10 -20 0 -85 65 -85 85 0 8 -9 15
-20 15 -11 0 -20 5 -20 10 0 6 -9 10 -20 10 -11 0 -20 -4 -20 -10 0 -5 -4 -10
-10 -10 -5 0 -10 9 -10 20 0 11 5 20 10 20 6 0 10 9 10 20 0 11 -4 20 -10 20
-5 0 -10 -9 -10 -20 0 -11 -4 -20 -10 -20 -5 0 -10 -9 -10 -20 0 -11 5 -20 10
-20 6 0 10 -13 10 -30 0 -16 -4 -30 -10 -30 -5 0 -10 5 -10 10 0 6 -4 10 -10
10 -18 0 -11 -55 10 -70 12 -8 20 -26 20 -42 0 -21 -5 -28 -20 -28 -16 0 -20
7 -20 30 0 28 -2 30 -40 30 -38 0 -40 2 -40 30 0 17 -4 30 -10 30 -5 0 -10 18
-10 40 0 22 5 40 10 40 6 0 10 9 10 20 0 11 5 20 10 20 6 0 10 9 10 20 0 11 5
20 10 20 6 0 10 18 10 40 0 38 2 40 30 40 17 0 30 -4 30 -10z m200 -300 c0 -5
9 -10 20 -10 11 0 20 -4 20 -10 0 -5 -13 -10 -30 -10 -28 0 -30 -2 -30 -40 0
-38 2 -40 30 -40 28 0 30 -2 30 -40 0 -22 5 -40 10 -40 6 0 10 -33 10 -79 0
-54 4 -81 13 -84 6 -2 9 -8 5 -12 -4 -4 -14 0 -23 8 -11 11 -15 36 -15 91 0
44 -4 76 -10 76 -5 0 -10 -9 -10 -20 0 -11 -4 -20 -10 -20 -5 0 -10 -9 -10
-20 0 -11 -4 -20 -10 -20 -5 0 -10 18 -10 40 0 22 -4 40 -10 40 -6 0 -10 40
-10 100 0 93 1 100 20 100 11 0 20 -4 20 -10z m260 0 c0 -5 -9 -10 -20 -10
-11 0 -20 5 -20 10 0 6 9 10 20 10 11 0 20 -4 20 -10z m100 0 c0 -5 -13 -10
-30 -10 -16 0 -30 5 -30 10 0 6 14 10 30 10 17 0 30 -4 30 -10z m500 0 c0 -5
-9 -10 -20 -10 -11 0 -20 -4 -20 -10 0 -5 -9 -10 -20 -10 -11 0 -20 5 -20 10
0 6 9 10 20 10 11 0 20 5 20 10 0 6 9 10 20 10 11 0 20 -4 20 -10z m-1000 -70
c0 -11 -4 -20 -10 -20 -5 0 -10 9 -10 20 0 11 5 20 10 20 6 0 10 -9 10 -20z
m386 5 c14 -13 14 -17 0 -30 -21 -22 -26 -19 -26 15 0 34 5 37 26 15z m234
-145 c0 -87 -4 -140 -10 -140 -6 0 -10 -83 -10 -230 l0 -230 -36 0 c-45 0 -64
19 -64 63 0 20 -6 38 -12 41 -10 5 -10 7 0 12 19 9 14 24 -8 24 -13 0 -20 7
-20 20 0 13 7 20 20 20 11 0 20 5 20 10 0 6 -13 10 -30 10 -27 0 -30 -3 -30
-30 0 -30 -14 -41 -23 -17 -4 9 -8 8 -17 -3 -9 -11 -13 -12 -17 -2 -8 19 -23
14 -23 -8 0 -13 -7 -20 -20 -20 -12 0 -20 7 -20 16 0 9 -13 29 -30 44 -16 15
-30 35 -30 44 0 9 -4 16 -10 16 -5 0 -10 -18 -10 -40 l0 -40 -50 0 c-27 0 -50
5 -50 10 0 6 -9 10 -20 10 -12 0 -20 7 -20 16 0 9 -10 25 -22 36 -19 16 -20
21 -8 29 11 8 12 12 3 16 -15 6 -17 43 -3 43 6 0 10 9 10 20 0 11 5 20 10 20
6 0 10 -13 10 -30 0 -27 3 -30 30 -30 27 0 30 3 30 30 0 17 5 30 10 30 6 0 10
14 10 30 0 27 3 30 30 30 23 0 30 4 30 20 0 11 5 20 10 20 6 0 10 -13 10 -30
0 -21 -5 -30 -16 -30 -23 0 -44 -25 -44 -54 0 -19 5 -26 19 -26 11 0 21 -6 23
-12 3 -9 9 -8 21 4 24 23 21 28 -13 28 -34 0 -37 5 -14 27 13 13 17 14 24 3 7
-11 12 -10 27 5 13 13 14 20 5 23 -14 4 -17 62 -2 62 6 0 10 -9 10 -20 0 -11
5 -20 10 -20 6 0 10 5 10 10 0 6 9 10 20 10 11 0 20 5 20 10 0 6 5 10 10 10 6
0 10 -9 10 -20 0 -24 6 -25 26 -6 10 11 14 41 14 110 0 57 4 96 10 96 6 0 10
-43 10 -110 0 -102 1 -110 19 -110 11 0 21 -6 24 -12 2 -8 8 -9 13 -4 5 5 4
11 -3 13 -16 6 -19 223 -3 223 14 0 12 38 -2 42 -8 3 -4 14 12 31 20 20 35 26
73 26 l47 1 0 -140z m-160 100 c0 -13 -7 -20 -20 -20 -13 0 -20 7 -20 20 0 13
7 20 20 20 13 0 20 -7 20 -20z m380 -20 c0 -16 -7 -20 -30 -20 -23 0 -30 4
-30 20 0 16 7 20 30 20 23 0 30 -4 30 -20z m-460 -50 c0 -5 -4 -10 -10 -10 -5
0 -10 5 -10 10 0 6 5 10 10 10 6 0 10 -4 10 -10z m480 -20 c0 -5 14 -10 30
-10 17 0 30 -4 30 -10 0 -5 -18 -10 -40 -10 -33 0 -40 3 -40 20 0 11 5 20 10
20 6 0 10 -4 10 -10z m120 0 c0 -5 -9 -10 -20 -10 -11 0 -20 5 -20 10 0 6 9
10 20 10 11 0 20 -4 20 -10z m-154 -64 c22 -23 17 -26 -36 -26 -53 0 -57 3
-37 25 16 19 55 19 73 1z m-726 -56 c0 -16 5 -30 10 -30 6 0 10 -9 10 -20 0
-11 5 -20 10 -20 6 0 10 -4 10 -10 0 -5 -9 -10 -20 -10 -16 0 -20 7 -20 30 0
17 -4 30 -10 30 -5 0 -10 14 -10 30 0 17 5 30 10 30 6 0 10 -13 10 -30z m620
20 c0 -5 -9 -10 -20 -10 -11 0 -20 5 -20 10 0 6 9 10 20 10 11 0 20 -4 20 -10z
m-420 -360 c0 -5 -9 -10 -20 -10 -11 0 -20 -4 -20 -10 0 -5 14 -10 30 -10 17
0 30 -4 30 -10 0 -5 9 -10 20 -10 11 0 20 -4 20 -10 0 -5 -9 -10 -20 -10 -11
0 -20 5 -20 10 0 6 -13 10 -30 10 -16 0 -30 5 -30 10 0 6 -9 10 -20 10 -11 0
-20 5 -20 10 0 6 9 10 20 10 11 0 20 5 20 10 0 6 9 10 20 10 11 0 20 -4 20
-10z m160 -50 c0 -11 -4 -20 -10 -20 -5 0 -10 5 -10 10 0 6 -9 10 -20 10 -11
0 -20 5 -20 10 0 6 14 10 30 10 23 0 30 -4 30 -20z m-20 -50 c0 -5 -4 -10 -10
-10 -5 0 -10 5 -10 10 0 6 5 10 10 10 6 0 10 -4 10 -10z"/>
<path d="M1280 3160 c0 -13 7 -20 20 -20 13 0 20 7 20 20 0 13 -7 20 -20 20
-13 0 -20 -7 -20 -20z"/>
<path d="M1060 3130 c0 -5 -9 -10 -20 -10 -17 0 -20 -7 -20 -40 0 -33 3 -40
20 -40 16 0 20 7 20 30 0 17 5 30 10 30 6 0 10 9 10 20 0 11 -4 20 -10 20 -5
0 -10 -4 -10 -10z"/>
<path d="M1113 3105 c-7 -8 -13 -24 -13 -35 0 -24 27 -56 38 -45 4 4 1 10 -5
12 -24 9 -13 23 17 23 17 0 30 5 30 10 0 6 14 10 30 10 17 0 30 5 30 10 0 6
-9 10 -20 10 -11 0 -20 5 -20 10 0 15 -73 11 -87 -5z"/>
<path d="M2580 3190 c0 -5 5 -10 10 -10 6 0 10 5 10 10 0 6 -4 10 -10 10 -5 0
-10 -4 -10 -10z"/>
<path d="M2520 3170 c0 -5 9 -10 20 -10 11 0 20 5 20 10 0 6 -9 10 -20 10 -11
0 -20 -4 -20 -10z"/>
<path d="M1520 2440 c0 -11 5 -20 10 -20 6 0 10 9 10 20 0 11 -4 20 -10 20 -5
0 -10 -9 -10 -20z"/>
<path d="M1453 2365 c-17 -19 -16 -25 3 -25 15 0 44 23 44 34 0 12 -35 5 -47
-9z"/>
<path d="M1560 2250 c0 -5 -13 -10 -30 -10 -16 0 -30 -4 -30 -10 0 -6 -33 -10
-80 -10 -47 0 -80 4 -80 10 0 6 -22 10 -50 10 -27 0 -50 -4 -50 -10 0 -5 18
-10 40 -10 22 0 40 -4 40 -10 0 -6 37 -10 90 -10 53 0 90 4 90 10 0 6 12 10
26 10 14 0 32 6 40 14 16 17 18 26 4 26 -5 0 -10 -4 -10 -10z"/>
<path d="M2720 2250 c0 -6 -27 -10 -60 -10 -33 0 -60 -4 -60 -10 0 -6 -30 -10
-70 -10 -40 0 -70 -4 -70 -10 0 -6 33 -10 80 -10 47 0 80 4 80 10 0 6 21 10
46 10 26 0 52 6 60 14 16 17 18 26 4 26 -5 0 -10 -4 -10 -10z"/>
<path d="M2220 1490 c0 -5 9 -10 20 -10 11 0 20 5 20 10 0 6 -9 10 -20 10 -11
0 -20 -4 -20 -10z"/>
<path d="M2160 1470 c0 -5 9 -10 20 -10 11 0 20 5 20 10 0 6 -9 10 -20 10 -11
0 -20 -4 -20 -10z"/>
<path d="M1660 1450 c0 -6 30 -10 70 -10 40 0 70 4 70 10 0 6 -30 10 -70 10
-40 0 -70 -4 -70 -10z"/>
<path d="M2040 1450 c0 -5 23 -10 50 -10 28 0 50 5 50 10 0 6 -22 10 -50 10
-27 0 -50 -4 -50 -10z"/>
<path d="M1860 1430 c0 -6 27 -10 60 -10 33 0 60 4 60 10 0 6 -27 10 -60 10
-33 0 -60 -4 -60 -10z"/>
<path d="M2500 950 c0 -5 5 -10 10 -10 6 0 10 5 10 10 0 6 -4 10 -10 10 -5 0
-10 -4 -10 -10z"/>
<path d="M2540 900 c0 -11 5 -20 10 -20 6 0 10 9 10 20 0 11 -4 20 -10 20 -5
0 -10 -9 -10 -20z"/>
<path d="M1900 470 c0 -5 5 -10 10 -10 6 0 10 5 10 10 0 6 -4 10 -10 10 -5 0
-10 -4 -10 -10z"/>
<path d="M1900 380 c0 -11 5 -20 10 -20 6 0 10 9 10 20 0 11 -4 20 -10 20 -5
0 -10 -9 -10 -20z"/>
<path d="M1860 330 c0 -5 9 -10 20 -10 11 0 20 -4 20 -10 0 -5 5 -10 10 -10 6
0 10 9 10 20 0 16 -7 20 -30 20 -16 0 -30 -4 -30 -10z"/>
<path d="M1600 300 c0 -13 7 -20 20 -20 13 0 20 7 20 20 0 13 -7 20 -20 20
-13 0 -20 -7 -20 -20z"/>
<path d="M1500 280 c0 -11 5 -20 10 -20 6 0 10 -9 10 -20 0 -16 7 -20 30 -20
17 0 30 -4 30 -10 0 -5 9 -10 20 -10 16 0 20 7 20 30 0 23 -4 30 -20 30 -11 0
-20 -4 -20 -10 0 -5 -9 -10 -20 -10 -11 0 -20 5 -20 10 0 6 5 10 10 10 6 0 10
9 10 20 0 16 -7 20 -30 20 -23 0 -30 -4 -30 -20z"/>
<path d="M1840 270 c0 -5 -9 -10 -20 -10 -11 0 -20 -4 -20 -10 0 -5 23 -10 50
-10 43 0 50 3 50 20 0 16 -7 20 -30 20 -16 0 -30 -4 -30 -10z"/>
<path d="M1780 210 c0 -5 5 -10 10 -10 6 0 10 5 10 10 0 6 -4 10 -10 10 -5 0
-10 -4 -10 -10z"/>
<path d="M795 3590 c-3 -5 1 -10 9 -10 9 0 16 5 16 10 0 6 -4 10 -9 10 -6 0
-13 -4 -16 -10z"/>
<path d="M800 3530 c0 -16 5 -30 10 -30 6 0 10 14 10 30 0 17 -4 30 -10 30 -5
0 -10 -13 -10 -30z"/>
<path d="M3460 744 c0 -20 39 -56 51 -48 14 8 11 34 -5 50 -20 19 -46 18 -46
-2z"/>
</g>
</svg>
